<?xml version="1.0" encoding="utf-8"?>
<!-- Generator: Adobe Illustrator 14.0.0, SVG Export Plug-In . SVG Version: 6.00 Build 43363)  -->
<!DOCTYPE svg PUBLIC "-//W3C//DTD SVG 1.1//EN" "http://www.w3.org/Graphics/SVG/1.1/DTD/svg11.dtd">
<svg version="1.1" id="Layer_1" xmlns="http://www.w3.org/2000/svg" xmlns:xlink="http://www.w3.org/1999/xlink" x="0px" y="0px"
	 width="155px" height="47px" viewBox="0 0 155 47" enable-background="new 0 0 155 47" xml:space="preserve">
<path fill="#EE4034" d="M2.109,37.044c-0.776,0-1.31,0.312-1.31,0.69v-2.812c0-0.382,0.534-0.692,1.31-0.692V37.044z"/>
<polygon fill="#EE4034" points="4.206,37.416 82.203,37.416 85.488,34.609 3.035,34.609 3.25,37.422 "/>
<path fill="#00498F" d="M12.077,3.024c-0.017,0-0.033-0.003-0.05-0.003c-1.075,0-2.112,0.185-3.087,0.526
	c-4.229,1.479-7.3,5.92-7.3,11.173v0.2v21.005v10.735h22.699c0.017,0,0.033,0.004,0.05,0.004c1.075,0,2.111-0.185,3.087-0.527
	c3.968-1.387,6.908-5.387,7.257-10.212h0.043v-0.961V14.92V3.024H12.077z"/>
<polygon fill="#EE4034" points="154.098,34.608 92.506,34.614 88.52,37.475 154.102,37.475 "/>
<path fill="#788ABB" d="M89.756,1.291c-1.756,0-2.264,1.315-2.264,2.633c0,1.868,0.408,2.263,1.605,3.102v5.135l1.428-0.254V7.092
	c0.973-0.254,1.654-1.512,1.654-3.168C92.18,2.352,91.211,1.291,89.756,1.291 M89.814,7.121c-1.07-0.021-1.527-1.834-1.512-3.023
	c0.02-1.189,0.422-2.691,1.428-2.613c1.131,0.089,1.598,1.786,1.615,2.657C91.365,4.992,91.23,7.148,89.814,7.121"/>
<path fill="none" stroke="#00498F" stroke-width="0.341" d="M89.756,1.291c-1.756,0-2.264,1.315-2.264,2.633
	c0,1.868,0.408,2.263,1.605,3.102v5.135l1.428-0.254V7.092c0.973-0.254,1.654-1.512,1.654-3.168
	C92.18,2.352,91.211,1.291,89.756,1.291z M89.814,7.121c-1.07-0.021-1.527-1.834-1.512-3.023c0.02-1.189,0.422-2.691,1.428-2.613
	c1.131,0.089,1.598,1.786,1.615,2.657C91.365,4.992,91.23,7.148,89.814,7.121z"/>
<path fill="#788ABB" d="M56.273,20.47h-1.095c-1.426-3.859-2.96-5.871-6.139-5.871c-3.397,0-4.877,3.1-4.877,8.426
	c0,5.543,1.863,8.424,5.59,8.424c3.617,0,5.699-2.283,5.918-6.387h1.206c0,4.758-2.713,7.637-7.728,7.637
	c-6.466,0-10.029-4.457-10.029-9.674c0-5.219,4.441-9.675,9.618-9.675c2.056,0,3.81,0.76,5.372,1.603l1.069-1.115h1.095V20.47z"/>
<path fill="none" stroke="#00498F" stroke-width="0.341" d="M56.273,20.47h-1.095c-1.426-3.859-2.96-5.871-6.139-5.871
	c-3.397,0-4.877,3.1-4.877,8.426c0,5.543,1.863,8.424,5.59,8.424c3.617,0,5.699-2.283,5.918-6.387h1.206
	c0,4.758-2.713,7.637-7.728,7.637c-6.466,0-10.029-4.457-10.029-9.674c0-5.219,4.441-9.675,9.618-9.675
	c2.056,0,3.81,0.76,5.372,1.603l1.069-1.115h1.095V20.47z"/>
<path fill="#788ABB" d="M59.115,32.372v-1.086c2.057-0.38,2.714-1.194,3.673-3.452l6.083-14.485h1.453l7.016,16.116
	c0.574,1.305,1.178,1.711,2.602,1.821v1.086H70.05v-1.086h1.096c1.425,0,1.644-0.325,1.644-0.897c0-0.353-0.137-0.705-0.301-1.088
	l-1.343-3.123h-6.028l-0.877,2.146c-0.138,0.354-0.329,0.951-0.329,1.712c0,0.763,0.493,1.25,1.562,1.25h1.342v1.086H59.115z
	 M68.05,19.029l-2.33,5.734h4.823L68.05,19.029z"/>
<path fill="none" stroke="#00498F" stroke-width="0.341" d="M59.115,32.372v-1.086c2.057-0.38,2.714-1.194,3.673-3.452l6.083-14.485
	h1.453l7.016,16.116c0.574,1.305,1.178,1.711,2.602,1.821v1.086H70.05v-1.086h1.096c1.425,0,1.644-0.325,1.644-0.897
	c0-0.353-0.137-0.705-0.301-1.088l-1.343-3.123h-6.028l-0.877,2.146c-0.138,0.354-0.329,0.951-0.329,1.712
	c0,0.763,0.493,1.25,1.562,1.25h1.342v1.086H59.115z M68.05,19.029l-2.33,5.734h4.823L68.05,19.029z"/>
<path fill="#788ABB" d="M106.949,27.727c0,3.025-1.514,5.014-5.4,5.014c-3.773,0-5.252-1.649-5.514-5.258
	c-0.256-3.732-0.406-4.739-4.4-5.198v6.42c0,1.742,0.48,2.446,3.553,2.446v1.22h-13.1v-1.22c2.74,0,3.627-0.489,3.627-2.019V14.58
	c0-1.529-0.887-2.019-3.627-2.019v-1.222h12.949c6.291,0,9.473,2.077,9.473,5.626c0,4.003-4.811,5.014-8.955,5.074v0.062
	c4.516,0.489,5.551,2.476,6.4,4.585c1.148,2.967,1.369,3.305,2.258,3.305c0.926,0,1.146-1.224,1.256-2.264H106.949z M91.635,21.184
	c4.031-0.154,6.51-0.674,6.51-4.188c0-2.539-1.553-4.25-4.104-4.25c-1.297,0-2.406,0.428-2.406,1.834V21.184z"/>
<path fill="none" stroke="#00498F" stroke-width="0.341" d="M106.949,27.727c0,3.025-1.514,5.014-5.4,5.014
	c-3.773,0-5.252-1.649-5.514-5.258c-0.256-3.732-0.406-4.739-4.4-5.198v6.42c0,1.742,0.48,2.446,3.553,2.446v1.22h-13.1v-1.22
	c2.74,0,3.627-0.489,3.627-2.019V14.58c0-1.529-0.887-2.019-3.627-2.019v-1.222h12.949c6.291,0,9.473,2.077,9.473,5.626
	c0,4.003-4.811,5.014-8.955,5.074v0.062c4.516,0.489,5.551,2.476,6.4,4.585c1.148,2.967,1.369,3.305,2.258,3.305
	c0.926,0,1.146-1.224,1.256-2.264H106.949z M91.635,21.184c4.031-0.154,6.51-0.674,6.51-4.188c0-2.539-1.553-4.25-4.104-4.25
	c-1.297,0-2.406,0.428-2.406,1.834V21.184z"/>
<path fill="#788ABB" d="M109.713,32.276v-1.087c1.451-0.025,2.688-0.68,2.688-2.555V16.296c0-1.386-0.906-1.603-2.521-1.631v-1.087
	h7.973l3.865,12.665h0.053l3.893-12.665h8.029v1.087c-2,0-2.66,0.435-2.66,1.794v12.936c0,1.36,0.66,1.794,2.66,1.794v1.087h-9.51
	v-1.087c1.809,0,2.467-0.434,2.467-1.794V15.589h-0.055l-5.234,16.687h-2.357l-5.014-16.687h-0.055v13.045
	c0,1.875,1.234,2.529,2.879,2.555v1.087H109.713z"/>
<path fill="none" stroke="#00498F" stroke-width="0.341" d="M109.713,32.276v-1.087c1.451-0.025,2.688-0.68,2.688-2.555V16.296
	c0-1.386-0.906-1.603-2.521-1.631v-1.087h7.973l3.865,12.665h0.053l3.893-12.665h8.029v1.087c-2,0-2.66,0.435-2.66,1.794v12.936
	c0,1.36,0.66,1.794,2.66,1.794v1.087h-9.51v-1.087c1.809,0,2.467-0.434,2.467-1.794V15.589h-0.055l-5.234,16.687h-2.357
	l-5.014-16.687h-0.055v13.045c0,1.875,1.234,2.529,2.879,2.555v1.087H109.713z"/>
<path fill="#788ABB" d="M137.248,32.372v-1.086c2.027,0,2.686-0.435,2.686-1.794V16.556c0-1.359-0.658-1.793-2.686-1.793v-1.088
	l17.133,0.013l-0.006,6.674h-1.18c-0.957-3.56-3.178-5.436-6.385-5.436c-1.697,0-2.275,0.406-2.275,1.74v5.271
	c2.635,0,3.537-0.597,4.275-3.152h1.098v7.557h-1.098c-0.738-2.557-1.641-3.155-4.275-3.155v6.305c0,1.359,0.66,1.794,3.016,1.794
	v1.086H137.248z"/>
<path fill="none" stroke="#00498F" stroke-width="0.341" d="M137.248,32.372v-1.086c2.027,0,2.686-0.435,2.686-1.794V16.556
	c0-1.359-0.658-1.793-2.686-1.793v-1.088l17.133,0.013l-0.006,6.674h-1.18c-0.957-3.56-3.178-5.436-6.385-5.436
	c-1.697,0-2.275,0.406-2.275,1.74v5.271c2.635,0,3.537-0.597,4.275-3.152h1.098v7.557h-1.098c-0.738-2.557-1.641-3.155-4.275-3.155
	v6.305c0,1.359,0.66,1.794,3.016,1.794v1.086H137.248z"/>
<path fill="#EE4034" d="M92.008,16.214c-0.506-1.14-4.549-2.209-6.033-6.167c-0.201-0.535-0.502-1.798,0.955-2.906
	c0.432-0.33,0.838-0.042,1.34-0.519c1.516-1.142,2.068-2.857,1.617-3.512c-0.709-1.028-7.346,1.085-6.625,6.853
	c0.861,6.937,8.596,7.88,8.596,9.336C92.236,18.585,92.285,17.129,92.008,16.214"/>
<path fill="none" stroke="#00498F" stroke-width="0.171" d="M92.008,16.214c-0.506-1.14-4.549-2.209-6.033-6.167
	c-0.201-0.535-0.502-1.798,0.955-2.906c0.432-0.33,0.838-0.042,1.34-0.519c1.516-1.142,2.068-2.857,1.617-3.512
	c-0.709-1.028-7.346,1.085-6.625,6.853c0.861,6.937,8.596,7.88,8.596,9.336C92.236,18.585,92.285,17.129,92.008,16.214z"/>
<path fill="#C6CDE8" d="M93.758,31.202c-0.078,0-0.148-0.002-0.223-0.004c-0.02,0.46-0.16,0.928-0.316,1.196h0.539V31.202z"/>
<path fill="none" stroke="#0058A3" stroke-width="0.333" d="M93.758,31.202c-0.078,0-0.148-0.002-0.223-0.004
	c-0.02,0.46-0.16,0.928-0.316,1.196h0.539V31.202z"/>
<path fill="#788ABB" d="M90.299,29.232c0.256,0.424,1.809,1.927,4.879,1.927v1.222H82.082v-1.222c2.74,0,3.625-0.489,3.625-2.019"/>
<path fill="none" stroke="#00498F" stroke-width="0.341" d="M90.299,29.232c0.256,0.424,1.809,1.927,4.879,1.927v1.222H82.082
	v-1.222c2.74,0,3.625-0.489,3.625-2.019"/>
<path fill="#EE4034" d="M95.035,31.271c0.098-0.913-0.057-1.049-0.342-1.331c-0.91-0.902-0.113-0.229-1.654-1.415
	c-1.512-1.166-7.365-5.21-7.365-8.582V19.32c-0.32,0.202-0.529,0.426-0.686,0.597c-1.057,1.161-1.912,3.058,0.145,5.435
	C87.695,28.319,91.076,31.129,95.035,31.271"/>
<path fill="none" stroke="#00498F" stroke-width="0.171" d="M95.035,31.271c0.098-0.913-0.057-1.049-0.342-1.331
	c-0.91-0.902-0.113-0.229-1.654-1.415c-1.512-1.166-7.365-5.21-7.365-8.582V19.32c-0.32,0.202-0.529,0.426-0.686,0.597
	c-1.057,1.161-1.912,3.058,0.145,5.435C87.695,28.319,91.076,31.129,95.035,31.271z"/>
<path fill="#EE4034" d="M84.135,38.349c0.557,0.303,8.463-5.22,8.797-5.66c0.021-0.028,0.045-0.065,0.066-0.103h-3.639
	C89.02,32.918,83.359,37.926,84.135,38.349"/>
<path fill="none" stroke="#00498F" stroke-width="0.171" d="M84.135,38.349c0.557,0.303,8.463-5.22,8.797-5.66
	c0.021-0.028,0.045-0.065,0.066-0.103h-3.639C89.02,32.918,83.359,37.926,84.135,38.349z"/>
<path fill="#EE4034" d="M1.993,35.569c-0.659,0-1.193-0.31-1.193-0.69v2.812c0,0.383,0.534,0.692,1.193,0.692V35.569z"/>
<rect x="1.905" y="35.568" fill="#EE4034" width="2.734" height="2.846"/>
<path fill="#FFFFFF" d="M15.287,25.272c-0.088,0.573-0.088,1.058-0.088,1.587c0,2.821,1.234,4.408,3.438,4.408
	c2.116,0,4.011-0.971,6.128-3.13l0.528,0.616c-2.689,3.352-5.818,5.291-9.345,5.291c-3.835,0-5.995-2.205-5.995-6.041
	c0-7.448,7.141-14.633,13.665-14.633c2.336,0,3.659,1.101,3.659,3.041c0,1.499-0.617,3.262-2.336,4.981
	C22.295,24.039,18.372,25.14,15.287,25.272 M21.767,14.561c-1.631,0-4.453,3.57-6.216,9.742c2.469-0.308,3.35-0.662,4.541-1.851
	c1.675-1.676,2.689-4.409,2.689-6.481C22.781,15.044,22.428,14.561,21.767,14.561"/>
</svg>
